<?xml version="1.0" encoding="utf-8"?>
<!-- Generator: Adobe Illustrator 16.0.0, SVG Export Plug-In . SVG Version: 6.00 Build 0)  -->
<!DOCTYPE svg PUBLIC "-//W3C//DTD SVG 1.1//EN" "http://www.w3.org/Graphics/SVG/1.1/DTD/svg11.dtd">
<svg version="1.1" id="Layer_1" xmlns="http://www.w3.org/2000/svg" xmlns:xlink="http://www.w3.org/1999/xlink" x="0px" y="0px"
	 width="29px" height="23px" viewBox="0 0 29 23" enable-background="new 0 0 29 23" xml:space="preserve">
<path fill-rule="evenodd" clip-rule="evenodd" fill="#4C4C4D" d="M2,0h25c1.104,0,2,0.896,2,2v1c0,1.104-0.896,2-2,2H2
	C0.896,5,0,4.104,0,3V2C0,0.896,0.896,0,2,0z"/>
<path fill-rule="evenodd" clip-rule="evenodd" fill="#4C4C4D" d="M2,9h25c1.104,0,2,0.896,2,2v1c0,1.104-0.896,2-2,2H2
	c-1.104,0-2-0.896-2-2v-1C0,9.896,0.896,9,2,9z"/>
<path fill-rule="evenodd" clip-rule="evenodd" fill="#4C4C4D" d="M2,18h25c1.104,0,2,0.896,2,2v1c0,1.104-0.896,2-2,2H2
	c-1.104,0-2-0.896-2-2v-1C0,18.896,0.896,18,2,18z"/>
</svg>
